<?xml version="1.0" standalone="no"?>
<!DOCTYPE svg PUBLIC "-//W3C//DTD SVG 20010904//EN"
 "http://www.w3.org/TR/2001/REC-SVG-20010904/DTD/svg10.dtd">
<svg version="1.0" xmlns="http://www.w3.org/2000/svg"
 width="1024.000000pt" height="1024.000000pt" viewBox="0 0 1024.000000 1024.000000"
 preserveAspectRatio="xMidYMid meet">

<g transform="translate(0.000000,1024.000000) scale(0.100000,-0.100000)"
fill="#000000" stroke="none">
<path d="M5428 7693 c12 -2 32 -2 45 0 12 2 2 4 -23 4 -25 0 -35 -2 -22 -4z"/>
<path d="M5508 7693 c7 -3 16 -2 19 1 4 3 -2 6 -13 5 -11 0 -14 -3 -6 -6z"/>
<path d="M5185 7210 c-3 -5 -1 -10 4 -10 6 0 11 5 11 10 0 6 -2 10 -4 10 -3 0
-8 -4 -11 -10z"/>
<path d="M4951 6494 c0 -11 3 -14 6 -6 3 7 2 16 -1 19 -3 4 -6 -2 -5 -13z"/>
<path d="M4539 6013 c-13 -16 -12 -17 4 -4 16 13 21 21 13 21 -2 0 -10 -8 -17
-17z"/>
<path d="M5034 5901 c-5 -5 -25 -11 -44 -14 l-35 -4 35 -1 c34 -2 70 12 59 22
-3 3 -10 2 -15 -3z"/>
<path d="M4853 5883 c9 -2 23 -2 30 0 6 3 -1 5 -18 5 -16 0 -22 -2 -12 -5z"/>
<path d="M3663 5620 c-34 -14 -43 -42 -43 -139 l0 -91 -505 0 -506 0 -24 -25
c-29 -28 -31 -52 -9 -145 32 -143 153 -334 288 -455 204 -183 369 -258 706
-320 153 -28 290 -109 360 -210 110 -160 86 -408 -60 -620 -128 -186 -355
-345 -564 -396 -122 -30 -116 -12 -116 -336 l0 -274 25 -24 24 -25 601 0 601
0 24 25 25 24 0 269 c0 235 2 279 20 346 90 354 445 561 781 456 182 -56 347
-217 415 -404 31 -86 44 -226 44 -472 0 -191 1 -205 20 -224 20 -20 33 -20
625 -20 l606 0 24 25 25 24 0 276 0 276 -25 24 c-13 14 -35 25 -49 25 -47 0
-210 59 -296 107 -63 35 -111 74 -185 148 -112 112 -176 211 -223 350 -25 75
-27 91 -26 255 0 170 1 178 32 270 85 255 301 488 567 610 151 70 323 110 476
110 62 0 81 4 103 21 l26 20 0 229 c0 243 -4 270 -47 289 -30 14 -3706 15
-3740 1z"/>
</g>
</svg>
